<svg xmlns="http://www.w3.org/2000/svg" width="1200" height="150" viewBox="0 0 1200 150" font-family="-apple-system,'Segoe UI',Roboto,Ubuntu,sans-serif">
<defs><pattern id="dots" width="22" height="22" patternUnits="userSpaceOnUse"><circle cx="1" cy="1" r="1" fill="#fff" opacity="0.03"/></pattern></defs>
<rect width="1200" height="150" rx="16" fill="#1f1d1a"/><rect x="0.75" y="0.75" width="1198.5" height="148.5" rx="15.5" fill="none" stroke="#3a352d" stroke-width="1"/><rect x="16" y="1.25" width="1168" height="1" fill="#fff" opacity="0.045"/>
<rect width="1200" height="150" rx="16" fill="url(#dots)"/>
<g transform="translate(578.0,30)"><rect width="44" height="44" rx="10" fill="#17150f"/><rect x="0.75" y="0.75" width="42.5" height="42.5" rx="9.5" fill="none" stroke="#5a4636" stroke-width="1"/><rect x="10" y="1.25" width="24" height="1" fill="#fff" opacity="0.045"/></g>
<g stroke="#d97757" stroke-width="2.2" stroke-linecap="round"><line x1="589.0" y1="52.0" x2="611.0" y2="52.0"/><line x1="592.2" y1="44.2" x2="607.8" y2="59.8"/><line x1="600.0" y1="41.0" x2="600.0" y2="63.0"/><line x1="607.8" y1="44.2" x2="592.2" y2="59.8"/></g>
<rect x="584.0" y="86" width="32" height="2" rx="1" fill="#d97757"/>
<text x="600.0" y="108" font-size="17" font-weight="600" fill="#ece7dd" text-anchor="middle" letter-spacing="0.3">Thanks for stopping by</text>
<text x="600.0" y="130" font-family="'SF Mono','JetBrains Mono','Cascadia Code',Consolas,monospace" font-size="12.5" fill="#8a8377" text-anchor="middle" xml:space="preserve"><tspan fill="#5c5347">&gt; </tspan>let’s build something that matters</text>
</svg>