<svg xmlns="http://www.w3.org/2000/svg" width="860" height="236" viewBox="0 0 860 236" font-family="-apple-system,'Segoe UI',Roboto,Ubuntu,sans-serif">
<g transform="translate(0,0)"><rect width="400" height="236" rx="12" fill="#1f1d1a"/><rect x="0.75" y="0.75" width="398.5" height="234.5" rx="11.5" fill="none" stroke="#3a352d" stroke-width="1"/><rect x="12" y="1.25" width="376" height="1" fill="#fff" opacity="0.045"/></g>
<g transform="translate(460,0)"><rect width="400" height="236" rx="12" fill="#1f1d1a"/><rect x="0.75" y="0.75" width="398.5" height="234.5" rx="11.5" fill="none" stroke="#3a352d" stroke-width="1"/><rect x="12" y="1.25" width="376" height="1" fill="#fff" opacity="0.045"/></g>
<g transform="translate(28,0)"><text x="0" y="40" font-family="'SF Mono','JetBrains Mono','Cascadia Code',Consolas,monospace" font-size="12" letter-spacing="2.5" fill="#8a8377" text-anchor="start">GITHUB / STATS</text><rect x="0" y="49" width="26" height="2" rx="1" fill="#d97757"/></g>
<text x="28" y="82" font-family="'SF Mono','JetBrains Mono','Cascadia Code',Consolas,monospace" font-size="12.5" letter-spacing="1" fill="#8a8377">PUBLIC REPOS</text>
<line x1="136.0" y1="78" x2="342" y2="78" stroke="#2b261f" stroke-width="1.4" stroke-dasharray="0.5 5" stroke-linecap="round"/>
<text x="372" y="82" font-size="19" font-weight="700" fill="#ece7dd" text-anchor="end">12</text>
<text x="28" y="111" font-family="'SF Mono','JetBrains Mono','Cascadia Code',Consolas,monospace" font-size="12.5" letter-spacing="1" fill="#8a8377">TOTAL COMMITS</text>
<line x1="144.0" y1="107" x2="342" y2="107" stroke="#2b261f" stroke-width="1.4" stroke-dasharray="0.5 5" stroke-linecap="round"/>
<text x="372" y="111" font-size="19" font-weight="700" fill="#ece7dd" text-anchor="end">49</text>
<text x="28" y="140" font-family="'SF Mono','JetBrains Mono','Cascadia Code',Consolas,monospace" font-size="12.5" letter-spacing="1" fill="#8a8377">FOLLOWERS</text>
<line x1="112.0" y1="136" x2="342" y2="136" stroke="#2b261f" stroke-width="1.4" stroke-dasharray="0.5 5" stroke-linecap="round"/>
<text x="372" y="140" font-size="19" font-weight="700" fill="#ece7dd" text-anchor="end">5</text>
<text x="28" y="169" font-family="'SF Mono','JetBrains Mono','Cascadia Code',Consolas,monospace" font-size="12.5" letter-spacing="1" fill="#8a8377">ISSUES OPENED</text>
<line x1="144.0" y1="165" x2="342" y2="165" stroke="#2b261f" stroke-width="1.4" stroke-dasharray="0.5 5" stroke-linecap="round"/>
<text x="372" y="169" font-size="19" font-weight="700" fill="#ece7dd" text-anchor="end">2</text>
<text x="28" y="198" font-family="'SF Mono','JetBrains Mono','Cascadia Code',Consolas,monospace" font-size="12.5" letter-spacing="1" fill="#8a8377">LANGUAGES USED</text>
<line x1="152.0" y1="194" x2="342" y2="194" stroke="#2b261f" stroke-width="1.4" stroke-dasharray="0.5 5" stroke-linecap="round"/>
<text x="372" y="198" font-size="19" font-weight="700" fill="#ece7dd" text-anchor="end">7</text>
<g transform="translate(488,0)"><text x="0" y="40" font-family="'SF Mono','JetBrains Mono','Cascadia Code',Consolas,monospace" font-size="12" letter-spacing="2.5" fill="#8a8377" text-anchor="start">MOST USED LANGUAGES</text><rect x="0" y="49" width="26" height="2" rx="1" fill="#d97757"/></g>
<text x="488" y="74" font-family="'SF Mono','JetBrains Mono','Cascadia Code',Consolas,monospace" font-size="12.5" fill="#cabfb0">JavaScript</text>
<text x="832" y="74" font-family="'SF Mono','JetBrains Mono','Cascadia Code',Consolas,monospace" font-size="12" fill="#8a8377" text-anchor="end">37.7%</text>
<rect x="488" y="82" width="344" height="6" rx="3" fill="#2b261f"/>
<rect x="488" y="82" width="129.7" height="6" rx="3" fill="#f1e05a"/>
<text x="488" y="105" font-family="'SF Mono','JetBrains Mono','Cascadia Code',Consolas,monospace" font-size="12.5" fill="#cabfb0">Python</text>
<text x="832" y="105" font-family="'SF Mono','JetBrains Mono','Cascadia Code',Consolas,monospace" font-size="12" fill="#8a8377" text-anchor="end">30.9%</text>
<rect x="488" y="113" width="344" height="6" rx="3" fill="#2b261f"/>
<rect x="488" y="113" width="106.3" height="6" rx="3" fill="#3776ab"/>
<text x="488" y="136" font-family="'SF Mono','JetBrains Mono','Cascadia Code',Consolas,monospace" font-size="12.5" fill="#cabfb0">TypeScript</text>
<text x="832" y="136" font-family="'SF Mono','JetBrains Mono','Cascadia Code',Consolas,monospace" font-size="12" fill="#8a8377" text-anchor="end">18.3%</text>
<rect x="488" y="144" width="344" height="6" rx="3" fill="#2b261f"/>
<rect x="488" y="144" width="63.0" height="6" rx="3" fill="#3178c6"/>
<text x="488" y="167" font-family="'SF Mono','JetBrains Mono','Cascadia Code',Consolas,monospace" font-size="12.5" fill="#cabfb0">CSS</text>
<text x="832" y="167" font-family="'SF Mono','JetBrains Mono','Cascadia Code',Consolas,monospace" font-size="12" fill="#8a8377" text-anchor="end">8.1%</text>
<rect x="488" y="175" width="344" height="6" rx="3" fill="#2b261f"/>
<rect x="488" y="175" width="27.9" height="6" rx="3" fill="#563d7c"/>
<text x="488" y="198" font-family="'SF Mono','JetBrains Mono','Cascadia Code',Consolas,monospace" font-size="12.5" fill="#cabfb0">HTML</text>
<text x="832" y="198" font-family="'SF Mono','JetBrains Mono','Cascadia Code',Consolas,monospace" font-size="12" fill="#8a8377" text-anchor="end">4.4%</text>
<rect x="488" y="206" width="344" height="6" rx="3" fill="#2b261f"/>
<rect x="488" y="206" width="15.1" height="6" rx="3" fill="#e34c26"/>
</svg>