<svg xmlns="http://www.w3.org/2000/svg" width="860" height="250" viewBox="0 0 860 250" font-family="'Segoe UI',Ubuntu,sans-serif">
<defs>
      <linearGradient id="pg" x1="0" y1="0" x2="0" y2="1">
        <stop offset="0" stop-color="#161b22"/><stop offset="1" stop-color="#12151c"/></linearGradient>
      <linearGradient id="acc" x1="0" y1="0" x2="1" y2="0">
        <stop offset="0" stop-color="#a371f7"/><stop offset="1" stop-color="#39d0d8"/></linearGradient>
    </defs>
<rect x="0" y="0" width="400" height="250" rx="14" fill="url(#pg)" stroke="#2b3140"/>
<rect x="460" y="0" width="400" height="250" rx="14" fill="url(#pg)" stroke="#2b3140"/>
<text x="28" y="42" font-size="19" font-weight="700" fill="#e6edf3">📊 GitHub Stats</text>
<rect x="28" y="54" width="80" height="3" rx="2" fill="url(#acc)"/>
<text x="30" y="88" font-size="15">📦</text>
<text x="58" y="88" font-size="15" fill="#c9d1d9">Public Repos</text>
<text x="372" y="88" font-size="16" font-weight="700" fill="#a371f7" text-anchor="end">9</text>
<text x="30" y="119" font-size="15">💾</text>
<text x="58" y="119" font-size="15" fill="#c9d1d9">Total Commits</text>
<text x="372" y="119" font-size="16" font-weight="700" fill="#39d0d8" text-anchor="end">38</text>
<text x="30" y="150" font-size="15">👥</text>
<text x="58" y="150" font-size="15" fill="#c9d1d9">Followers</text>
<text x="372" y="150" font-size="16" font-weight="700" fill="#f778ba" text-anchor="end">5</text>
<text x="30" y="181" font-size="15">🐛</text>
<text x="58" y="181" font-size="15" fill="#c9d1d9">Issues Opened</text>
<text x="372" y="181" font-size="16" font-weight="700" fill="#3fb950" text-anchor="end">2</text>
<text x="30" y="212" font-size="15">🔤</text>
<text x="58" y="212" font-size="15" fill="#c9d1d9">Languages Used</text>
<text x="372" y="212" font-size="16" font-weight="700" fill="#f0883e" text-anchor="end">7</text>
<text x="488" y="42" font-size="19" font-weight="700" fill="#e6edf3">🧬 Most Used Languages</text>
<rect x="488" y="54" width="80" height="3" rx="2" fill="url(#acc)"/>
<text x="488" y="84" font-size="13.5" fill="#c9d1d9">JavaScript</text>
<text x="832" y="84" font-size="13" fill="#8b949e" text-anchor="end">38.7%</text>
<rect x="488" y="91" width="344" height="8" rx="4" fill="#21262d"/>
<rect x="488" y="91" width="133.1" height="8" rx="4" fill="#f1e05a"/>
<text x="488" y="116" font-size="13.5" fill="#c9d1d9">Python</text>
<text x="832" y="116" font-size="13" fill="#8b949e" text-anchor="end">28.6%</text>
<rect x="488" y="123" width="344" height="8" rx="4" fill="#21262d"/>
<rect x="488" y="123" width="98.4" height="8" rx="4" fill="#3776ab"/>
<text x="488" y="148" font-size="13.5" fill="#c9d1d9">TypeScript</text>
<text x="832" y="148" font-size="13" fill="#8b949e" text-anchor="end">19.2%</text>
<rect x="488" y="155" width="344" height="8" rx="4" fill="#21262d"/>
<rect x="488" y="155" width="66.0" height="8" rx="4" fill="#3178c6"/>
<text x="488" y="180" font-size="13.5" fill="#c9d1d9">CSS</text>
<text x="832" y="180" font-size="13" fill="#8b949e" text-anchor="end">8.5%</text>
<rect x="488" y="187" width="344" height="8" rx="4" fill="#21262d"/>
<rect x="488" y="187" width="29.2" height="8" rx="4" fill="#563d7c"/>
<text x="488" y="212" font-size="13.5" fill="#c9d1d9">HTML</text>
<text x="832" y="212" font-size="13" fill="#8b949e" text-anchor="end">4.6%</text>
<rect x="488" y="219" width="344" height="8" rx="4" fill="#21262d"/>
<rect x="488" y="219" width="15.8" height="8" rx="4" fill="#e34c26"/>
</svg>